# xmcd
#
# Track frame offsets:
#	182
#	14067
#	26410
#	39695
#	53075
#	65657
#	80705
#	93022
#	107640
#	121230
#	134477
#	147912
#	161190
#	174620
#	190842
#	221737
#	245692
#	259065
#	276262
#	291335
#	303627
#
# Disc length: 4357 seconds
# Revision: 9
# Processed by: cddbd v1.5.2PL0 Copyright (c) Steve Scherf et al.
# Submitted via: dBpowerAMP V12.0
#
DISCID=46110315
DTITLE=John Lee Hooker - My Story Is Blues Disc 1
DYEAR=1989
DGENRE=Pop Rock
TTITLE0=Louise
TTITLE1=High Priced Woman
TTITLE2=Union Station Blues
TTITLE3=Ground Hog Blues
TTITLE4=Leave My Wife Alone
TTITLE5=Ramblin' By Myself
TTITLE6=Walkin' The Boogie
TTITLE7=Sugar Mama
TTITLE8=Love Blues
TTITLE9=Down At The Landing
TTITLE10=It's My Own Fault Darling
TTITLE11=Women And Money
TTITLE12=Stella Mae
TTITLE13=Peace Lovin' Man
TTITLE14=Let's Go Out Tonight
TTITLE15=I Put My Trust In You
TTITLE16=One Bourbon, One Scotch, One Beer
TTITLE17=You Know, I Know
TTITLE18=I'll Never Trust Your Love Again
TTITLE19=In The Mood
TTITLE20=The Waterfront
EXTD=
EXTT0=
EXTT1=
EXTT2=
EXTT3=
EXTT4=
EXTT5=
EXTT6=
EXTT7=
EXTT8=
EXTT9=
EXTT10=
EXTT11=
EXTT12=
EXTT13=
EXTT14=
EXTT15=
EXTT16=
EXTT17=
EXTT18=
EXTT19=
EXTT20=
PLAYORDER=
